<?xml version="1.0" encoding="UTF-8" standalone="no"?>
<!-- Created with Inkscape (http://www.inkscape.org/) -->

<svg
   xmlns:dc="http://purl.org/dc/elements/1.1/"
   xmlns:cc="http://creativecommons.org/ns#"
   xmlns:rdf="http://www.w3.org/1999/02/22-rdf-syntax-ns#"
   xmlns:svg="http://www.w3.org/2000/svg"
   xmlns="http://www.w3.org/2000/svg"
   xmlns:sodipodi="http://sodipodi.sourceforge.net/DTD/sodipodi-0.dtd"
   xmlns:inkscape="http://www.inkscape.org/namespaces/inkscape"
   width="210mm"
   height="297mm"
   viewBox="0 0 210 297"
   version="1.1"
   id="svg8"
   inkscape:version="0.92.1 r"
   sodipodi:docname="images.svg">
  <defs
     id="defs2">
    <inkscape:path-effect
       effect="bend_path"
       id="path-effect4174"
       is_visible="true"
       bendpath="m -297.20371,-137.04571 c 0,0 -39.55589,42.763122 -40.62497,66.282839 -1.06907,23.51972 86.59532,52.384829 86.59532,85.52625 0,33.141421 -41.69404,88.733481 -41.69404,88.733481"
       prop_scale="1"
       scale_y_rel="false"
       vertical="false" />
    <inkscape:path-effect
       effect="bend_path"
       id="path-effect4154"
       is_visible="true"
       bendpath="m -316.44712,-61.141165 -51.31575,65.2137632 114.39136,58.7992968 -54.52298,71.628235"
       prop_scale="1"
       scale_y_rel="false"
       vertical="false" />
    <inkscape:path-effect
       effect="bend_path"
       id="path-effect3887"
       is_visible="true"
       bendpath="m 193.52381,-746.2143 c 0,0 -154.214286,69.54764 -133.047619,196.54764 21.166667,127 -190.500001,196.54761 -190.500001,196.54761"
       prop_scale="0.48759098"
       scale_y_rel="false"
       vertical="false" />
    <inkscape:path-effect
       effect="bend_path"
       id="path-effect3868"
       is_visible="true"
       bendpath="m 399.83521,-108.1806 c 0,0 -92.68489,95.400879 -94.07887,157.154478 -1.39399,61.753602 192.43405,186.019592 195.6413,272.614912 3.20723,86.59532 -99.23097,171.95882 -99.23097,171.95882"
       prop_scale="1.0351275"
       scale_y_rel="false"
       vertical="false" />
    <inkscape:path-effect
       effect="bend_path"
       id="path-effect3831"
       is_visible="true"
       bendpath="m 342.10501,20.10877 c 0,0 20.31248,-71.628233 62.0065,-71.628233 41.69405,0 76.97364,137.911075 119.73677,136.841997 42.76312,-1.069078 60.93745,-72.697311 60.93745,-72.697311"
       prop_scale="1"
       scale_y_rel="false"
       vertical="false" />
    <inkscape:path-effect
       effect="bend_path"
       id="path-effect3811"
       is_visible="true"
       bendpath="m 32.072345,153.74353 c 0,0 -50.246673,-161.4307911 59.868374,-51.31575 110.115041,110.11505 134.703841,148.60186 197.779461,88.73349 63.07561,-59.86838 112.25318,-55.59206 112.25318,-55.59206"
       prop_scale="1.7513588"
       scale_y_rel="false"
       vertical="false" />
    <inkscape:path-effect
       effect="bend_path"
       id="path-effect3801"
       is_visible="true"
       bendpath="m 26.458333,172.26786 78.619047,-55.18453 143.63095,130.02381 85.42261,-63.5"
       prop_scale="1.514866"
       scale_y_rel="false"
       vertical="false" />
    <inkscape:path-effect
       effect="skeletal"
       id="path-effect3771"
       is_visible="true"
       pattern="m -54.428721,17.297864 c 0,0 37.014692,-24.6674663 70.024617,-24.6674663 33.009923,1e-6 70.024603,24.6674753 70.024603,24.6674753 0,0 -37.01468,24.667472 -70.024603,24.667472 -33.009922,-1.1e-5 -70.024617,-24.667481 -70.024617,-24.667481 z"
       copytype="single_stretched"
       prop_scale="0.26458333"
       scale_y_rel="false"
       spacing="0"
       normal_offset="0"
       tang_offset="0"
       prop_units="false"
       vertical_pattern="false"
       fuse_tolerance="0" />
    <inkscape:path-effect
       effect="skeletal"
       id="path-effect3761"
       is_visible="true"
       pattern="m -54.428721,17.297864 c 0,0 37.014692,-24.6674663 70.024617,-24.6674663 33.009923,1e-6 70.024603,24.6674753 70.024603,24.6674753 0,0 -37.01468,24.667472 -70.024603,24.667472 -33.009922,-1.1e-5 -70.024617,-24.667481 -70.024617,-24.667481 z"
       copytype="single_stretched"
       prop_scale="0.26458333"
       scale_y_rel="false"
       spacing="0"
       normal_offset="0"
       tang_offset="0"
       prop_units="false"
       vertical_pattern="false"
       fuse_tolerance="0" />
    <inkscape:path-effect
       effect="spiro"
       id="path-effect3753"
       is_visible="true" />
    <inkscape:path-effect
       effect="skeletal"
       id="path-effect3749"
       is_visible="true"
       pattern="m -54.428721,17.297864 c 0,0 37.014692,-24.6674663 70.024617,-24.6674663 33.009923,1e-6 70.024603,24.6674753 70.024603,24.6674753 0,0 -37.01468,24.667472 -70.024603,24.667472 -33.009922,-1.1e-5 -70.024617,-24.667481 -70.024617,-24.667481 z"
       copytype="single_stretched"
       prop_scale="0.26458333"
       scale_y_rel="false"
       spacing="0"
       normal_offset="0"
       tang_offset="0"
       prop_units="false"
       vertical_pattern="false"
       fuse_tolerance="0" />
    <inkscape:path-effect
       effect="bspline"
       id="path-effect3741"
       is_visible="true"
       weight="33.333333"
       steps="2"
       helper_size="0"
       apply_no_weight="true"
       apply_with_weight="true"
       only_selected="false" />
    <inkscape:path-effect
       effect="bend_path"
       id="path-effect3831-7"
       is_visible="true"
       bendpath="m 342.10501,20.10877 c 0,0 20.31248,-71.628233 62.0065,-71.628233 41.69405,0 76.97364,137.911075 119.73677,136.841997 42.76312,-1.069078 60.93745,-72.697311 60.93745,-72.697311"
       prop_scale="1"
       scale_y_rel="false"
       vertical="false" />
    <inkscape:path-effect
       effect="bend_path"
       id="path-effect3887-0"
       is_visible="true"
       bendpath="m 193.52381,-746.2143 c 0,0 -154.214286,69.54764 -133.047619,196.54764 21.166667,127 -190.500001,196.54761 -190.500001,196.54761"
       prop_scale="0.48759098"
       scale_y_rel="false"
       vertical="false" />
    <inkscape:path-effect
       effect="bend_path"
       id="path-effect3887-2"
       is_visible="true"
       bendpath="m 193.52381,-746.2143 c 0,0 -154.214286,69.54764 -133.047619,196.54764 21.166667,127 -190.500001,196.54761 -190.500001,196.54761"
       prop_scale="0.48759098"
       scale_y_rel="false"
       vertical="false" />
    <inkscape:path-effect
       effect="bend_path"
       id="path-effect3887-8"
       is_visible="true"
       bendpath="m 193.52381,-746.2143 c 0,0 -154.214286,69.54764 -133.047619,196.54764 21.166667,127 -190.500001,196.54761 -190.500001,196.54761"
       prop_scale="0.48759098"
       scale_y_rel="false"
       vertical="false" />
    <inkscape:path-effect
       effect="bend_path"
       id="path-effect3887-2-9"
       is_visible="true"
       bendpath="m 193.52381,-746.2143 c 0,0 -154.214286,69.54764 -133.047619,196.54764 21.166667,127 -190.500001,196.54761 -190.500001,196.54761"
       prop_scale="0.48759098"
       scale_y_rel="false"
       vertical="false" />
    <inkscape:path-effect
       effect="bend_path"
       id="path-effect3887-02"
       is_visible="true"
       bendpath="m 193.52381,-746.2143 c 0,0 -154.214286,69.54764 -133.047619,196.54764 21.166667,127 -190.500001,196.54761 -190.500001,196.54761"
       prop_scale="0.48759098"
       scale_y_rel="false"
       vertical="false" />
    <inkscape:path-effect
       effect="bend_path"
       id="path-effect3887-0-7"
       is_visible="true"
       bendpath="m 193.52381,-746.2143 c 0,0 -154.214286,69.54764 -133.047619,196.54764 21.166667,127 -190.500001,196.54761 -190.500001,196.54761"
       prop_scale="0.48759098"
       scale_y_rel="false"
       vertical="false" />
    <inkscape:path-effect
       effect="bend_path"
       id="path-effect3887-0-7-9"
       is_visible="true"
       bendpath="m 193.52381,-746.2143 c 0,0 -154.214286,69.54764 -133.047619,196.54764 21.166667,127 -190.500001,196.54761 -190.500001,196.54761"
       prop_scale="0.48759098"
       scale_y_rel="false"
       vertical="false" />
    <inkscape:path-effect
       effect="bend_path"
       id="path-effect3887-0-7-2"
       is_visible="true"
       bendpath="m 193.52381,-746.2143 c 0,0 -154.214286,69.54764 -133.047619,196.54764 21.166667,127 -190.500001,196.54761 -190.500001,196.54761"
       prop_scale="0.48759098"
       scale_y_rel="false"
       vertical="false" />
    <inkscape:path-effect
       effect="bend_path"
       id="path-effect3887-2-9-9"
       is_visible="true"
       bendpath="m 193.52381,-746.2143 c 0,0 -154.214286,69.54764 -133.047619,196.54764 21.166667,127 -190.500001,196.54761 -190.500001,196.54761"
       prop_scale="0.48759098"
       scale_y_rel="false"
       vertical="false" />
    <inkscape:path-effect
       effect="bend_path"
       id="path-effect3887-3"
       is_visible="true"
       bendpath="m 193.52381,-746.2143 c 0,0 -154.214286,69.54764 -133.047619,196.54764 21.166667,127 -190.500001,196.54761 -190.500001,196.54761"
       prop_scale="0.48759098"
       scale_y_rel="false"
       vertical="false" />
    <inkscape:path-effect
       effect="bend_path"
       id="path-effect3887-2-9-93"
       is_visible="true"
       bendpath="m 193.52381,-746.2143 c 0,0 -154.214286,69.54764 -133.047619,196.54764 21.166667,127 -190.500001,196.54761 -190.500001,196.54761"
       prop_scale="0.48759098"
       scale_y_rel="false"
       vertical="false" />
    <inkscape:path-effect
       effect="bend_path"
       id="path-effect3887-02-9"
       is_visible="true"
       bendpath="m 193.52381,-746.2143 c 0,0 -154.214286,69.54764 -133.047619,196.54764 21.166667,127 -190.500001,196.54761 -190.500001,196.54761"
       prop_scale="0.48759098"
       scale_y_rel="false"
       vertical="false" />
    <inkscape:path-effect
       effect="bend_path"
       id="path-effect3887-2-7"
       is_visible="true"
       bendpath="m 193.52381,-746.2143 c 0,0 -154.214286,69.54764 -133.047619,196.54764 21.166667,127 -190.500001,196.54761 -190.500001,196.54761"
       prop_scale="0.48759098"
       scale_y_rel="false"
       vertical="false" />
    <inkscape:path-effect
       effect="bend_path"
       id="path-effect3831-4"
       is_visible="true"
       bendpath="m 342.10501,20.10877 c 0,0 20.31248,-71.628233 62.0065,-71.628233 41.69405,0 76.97364,137.911075 119.73677,136.841997 42.76312,-1.069078 60.93745,-72.697311 60.93745,-72.697311"
       prop_scale="1"
       scale_y_rel="false"
       vertical="false" />
    <inkscape:path-effect
       effect="bend_path"
       id="path-effect3887-8-6"
       is_visible="true"
       bendpath="m 193.52381,-746.2143 c 0,0 -154.214286,69.54764 -133.047619,196.54764 21.166667,127 -190.500001,196.54761 -190.500001,196.54761"
       prop_scale="0.48759098"
       scale_y_rel="false"
       vertical="false" />
    <inkscape:path-effect
       effect="bend_path"
       id="path-effect3887-8-2"
       is_visible="true"
       bendpath="m 193.52381,-746.2143 c 0,0 -154.214286,69.54764 -133.047619,196.54764 21.166667,127 -190.500001,196.54761 -190.500001,196.54761"
       prop_scale="0.48759098"
       scale_y_rel="false"
       vertical="false" />
    <inkscape:path-effect
       effect="bend_path"
       id="path-effect3887-8-61"
       is_visible="true"
       bendpath="m 193.52381,-746.2143 c 0,0 -154.214286,69.54764 -133.047619,196.54764 21.166667,127 -190.500001,196.54761 -190.500001,196.54761"
       prop_scale="0.48759098"
       scale_y_rel="false"
       vertical="false" />
    <inkscape:path-effect
       effect="bend_path"
       id="path-effect3887-8-61-5"
       is_visible="true"
       bendpath="m 193.52381,-746.2143 c 0,0 -154.214286,69.54764 -133.047619,196.54764 21.166667,127 -190.500001,196.54761 -190.500001,196.54761"
       prop_scale="0.48759098"
       scale_y_rel="false"
       vertical="false" />
  </defs>
  <sodipodi:namedview
     id="base"
     pagecolor="#ffffff"
     bordercolor="#666666"
     borderopacity="1.0"
     inkscape:pageopacity="0.0"
     inkscape:pageshadow="2"
     inkscape:zoom="0.5"
     inkscape:cx="284.23215"
     inkscape:cy="607.20743"
     inkscape:document-units="mm"
     inkscape:current-layer="layer1"
     showgrid="false"
     inkscape:snap-nodes="true"
     inkscape:snap-global="false"
     inkscape:window-width="1317"
     inkscape:window-height="742"
     inkscape:window-x="49"
     inkscape:window-y="0"
     inkscape:window-maximized="1" />
  <metadata
     id="metadata5">
    <rdf:RDF>
      <cc:Work
         rdf:about="">
        <dc:format>image/svg+xml</dc:format>
        <dc:type
           rdf:resource="http://purl.org/dc/dcmitype/StillImage" />
        <dc:title />
      </cc:Work>
    </rdf:RDF>
  </metadata>
  <g
     inkscape:label="1. réteg"
     inkscape:groupmode="layer"
     id="layer1">
    <path
       style="fill:#859900;stroke-width:0.37277985;fill-opacity:1"
       d="M 167.04102 22.679688 L 42.240234 36.386719 C 52.855208 138.06587 33.311981 231.18563 168.11719 281.00781 C 302.92257 231.18563 283.379 138.06587 293.99414 36.386719 L 167.04102 22.679688 z M 105.33008 56.724609 C 105.55341 56.724609 106.23508 57.719548 106.8457 58.935547 C 108.51017 62.250196 111.2513 65.921063 114.01758 68.539062 C 120.25875 74.445738 127.5792 77.693191 138.17578 79.255859 C 146.01811 80.412353 154.9324 82.820375 162.49414 85.824219 C 164.23378 86.515283 165.75853 86.977572 165.88477 86.851562 C 166.55215 86.18414 158.08718 78.875593 154.13281 76.705078 C 152.42076 75.76537 149.17237 74.157439 146.91406 73.132812 C 144.65576 72.108183 142.80859 71.106036 142.80859 70.90625 C 142.80859 70.37472 146.70235 70.98956 150.81055 72.169922 C 161.16241 75.144244 171.7047 80.742788 179.70312 87.513672 C 184.49409 91.569381 188.53235 93.856792 194.81445 96.068359 C 195.6252 96.353823 195.61991 96.389236 194.64453 97.125 C 193.73964 97.807673 193.6607 98.107571 193.88672 100.01758 C 194.17389 102.44222 195.32436 104.93243 196.78711 106.29688 C 197.33593 106.80883 200.90808 108.56861 204.72461 110.20703 C 213.21875 113.85354 219.94029 117.6365 223.25781 120.63867 C 224.63234 121.88256 225.95128 122.78066 226.1875 122.63477 C 226.73436 122.29679 226.32557 120.51315 225.2832 118.68359 C 224.30082 116.95938 224.50072 116.66734 226.18555 117.36523 C 228.12906 118.17026 231.45133 122.07862 233.20117 125.61914 C 234.0603 127.35747 234.89078 128.8587 235.04688 128.95508 C 235.20298 129.05152 235.96386 128.66316 236.73828 128.0918 C 238.18641 127.0234 239.66797 126.71836 239.66797 127.48828 C 239.66797 127.72759 239.21666 128.81765 238.66406 129.91016 C 237.53012 132.15199 235.53 138.01644 234.39648 142.42578 C 233.60218 145.51543 232.97927 146.64277 232.61719 145.64844 C 232.15031 144.3667 229.65528 142.02271 227.95703 141.27148 C 225.76067 140.29992 224.92773 140.74712 224.92773 142.89844 C 224.92773 145.03111 223.95694 144.69776 221.70117 141.79297 C 220.62196 140.40325 219.60216 139.26562 219.43359 139.26562 C 219.26491 139.26563 218.9926 139.975 218.83008 140.8418 C 218.6676 141.70861 218.44674 142.56227 218.33789 142.73828 C 217.98103 143.31569 216.5159 142.21118 215.39648 140.51953 C 214.2745 138.82415 213.55859 138.6726 213.55859 140.13281 C 213.55859 141.80867 211.63369 140.79813 209.95898 138.24219 C 209.11071 136.94763 208.50391 136.84858 208.50391 138.00391 C 208.50391 139.29259 207.69482 139.01806 205.88477 137.11523 C 204.36366 135.51621 204.22054 135.45052 204.00586 136.27148 C 203.65353 137.61882 202.98961 137.35981 201.05664 135.11523 C 199.14243 132.8924 195.70028 130.43028 193.31445 129.58008 C 191.94279 129.09128 191.57907 129.14869 189.18164 130.22461 C 184.49937 132.32589 182.07055 136.61841 183.19727 140.80273 L 183.66602 142.54688 L 188.82031 142.32422 C 193.1893 142.13559 194.51656 142.23811 197.5293 143 C 202.04126 144.14103 202.03471 144.14086 202.33594 142.63477 C 202.47492 141.93993 202.83675 141.37305 203.14062 141.37305 C 203.44465 141.37305 204.62688 142.32042 205.76758 143.47852 C 206.90824 144.63662 208.04346 145.58398 208.29102 145.58398 C 208.53847 145.58398 208.95645 145.01517 209.21875 144.32031 C 209.48101 143.62548 209.88311 143.05664 210.11328 143.05664 C 210.34353 143.05664 211.38456 144.00401 212.42578 145.16211 C 213.467 146.32021 214.43608 147.26758 214.58008 147.26758 C 214.72419 147.26758 215.02751 146.7795 215.25391 146.18359 C 215.84684 144.62414 216.79049 145.00735 218.96484 147.68945 C 219.99707 148.9628 220.98069 150.06091 221.15039 150.12891 C 221.31998 150.19688 221.58074 149.77077 221.72852 149.18164 C 221.87637 148.5925 222.16227 148.10938 222.36523 148.10938 C 222.95963 148.10937 225.46052 152.27243 226.26562 154.60156 C 227.02906 156.80924 227.2268 158.91197 226.7793 160.07812 C 226.4148 161.02785 225.77148 160.90194 225.77148 159.88086 C 225.77148 158.84145 224.63161 156.5332 224.11914 156.5332 C 223.91796 156.5332 223.12899 157.11661 222.36523 157.83008 C 221.6015 158.54354 220.01924 159.60651 218.84766 160.19336 C 215.946 161.6468 215.35167 162.2412 213.875 165.16406 C 212.65652 167.57587 212.58227 167.64027 212.20508 166.63672 C 211.72822 165.36761 212.08155 162.79775 212.96875 161.08203 C 213.78241 159.50856 213.47495 158.63867 212.10547 158.63867 C 211.52361 158.63867 206.06881 157.50763 199.98438 156.125 C 180.9114 151.79089 172.48583 150.84579 167.17578 152.44531 C 164.85576 153.14415 162.79472 154.64577 161.87305 156.30859 C 161.4497 157.07224 161.3194 157.08717 160.2168 156.51758 C 158.08031 155.41388 153.18714 150.13296 151.9707 147.61719 C 148.85989 141.18374 148.72682 135.33313 151.47461 125.89453 C 151.65637 125.27057 151.57081 124.94727 151.22461 124.94727 C 150.26945 124.94727 147.73998 128.06116 146.44141 130.83594 C 144.09424 135.85111 144.52242 143.83755 147.45117 149.67188 C 149.74833 154.24807 154.6588 158.77431 159.29492 160.5918 C 160.44216 161.04155 161.96244 162.22237 163.35742 163.74609 C 165.7115 166.31743 169.03609 168.53867 183.77148 177.38672 C 188.34997 180.13591 193.32516 183.40677 194.82812 184.6543 C 200.24536 189.1508 204.87439 196.5775 206.83203 203.91016 C 207.89404 207.88831 208.45174 217.92838 207.71484 219.80859 L 207.25977 220.96875 L 202.72266 216.37891 C 194.46515 208.02264 190.02989 205.8586 167.6543 199.27539 C 155.11265 195.58547 152.58912 194.72117 147.9375 192.52344 C 138.04126 187.84782 131.26696 181.54464 126.74805 172.80664 C 125.19765 169.80905 124.68941 169.1287 124.45508 169.73633 C 123.86952 171.2552 126.33201 183.10355 128.29688 188.22266 C 128.82835 189.60735 127.40928 189.00321 125.32812 186.95898 C 118.81127 180.55769 115.06277 169.02106 114.3125 153.05859 C 114.16283 149.87382 113.91032 147.26758 113.75195 147.26758 C 113.25525 147.26758 112.55884 149.1883 111.81836 152.60547 C 111.28522 155.06534 111.11196 157.86294 111.13086 163.63281 C 111.1589 172.33215 111.04025 172.4625 108.81445 166.21875 C 106.09493 158.58973 105.55702 155.38481 105.56836 146.84766 C 105.57671 139.58004 105.65326 138.80729 106.71875 135.35156 C 109.2745 127.06281 114.17443 119.87369 120.69922 114.83984 C 121.97235 113.8576 123.01367 112.8799 123.01367 112.66602 C 123.01367 112.14954 120.37542 112.64816 117.79102 113.6543 C 114.56867 114.90882 110.50823 117.44648 106.45117 120.74023 C 104.40607 122.40056 102.64565 123.671 102.53906 123.56445 C 102.19063 123.21604 104.45069 117.744 105.98828 115.21289 C 109.24888 109.84537 113.94363 105.87908 119.18164 104.06445 C 120.7108 103.5347 124.04597 102.8877 126.59375 102.62695 C 131.45653 102.12927 138.71076 101.08025 139.96484 100.69336 C 140.89669 100.40632 140.91293 99.851522 140.00195 99.501953 C 139.61663 99.35406 135.30589 99.061074 130.42188 98.849609 C 115.41227 98.200124 108.99395 96.213118 103.16992 90.417969 C 100.98672 88.24561 98.684186 84.706435 99.150391 84.240234 C 99.258939 84.131671 100.37336 84.622596 101.62695 85.330078 C 107.61539 88.709739 113.70525 89.768654 126.54688 89.662109 C 132.69775 89.611131 138.33558 89.809084 142.12891 90.208984 C 149.17039 90.951185 149.24729 90.952455 148.92188 90.425781 C 148.4638 89.684631 144.40305 88.733064 138.13281 87.896484 C 128.7007 86.63803 125.9512 85.862941 119.9707 82.771484 C 117.23648 81.358096 115.57437 80.062921 112.23047 76.744141 C 106.72494 71.279945 104.93548 67.940931 104.5957 62.494141 C 104.36462 58.79051 104.62826 56.724609 105.33008 56.724609 z M 178.41406 107.94727 C 175.80812 108.0081 172.07617 109.60187 172.07617 110.6543 C 172.07617 111.00577 172.96375 111.5642 174.18359 111.98047 C 176.5125 112.77519 183.43395 113.01821 183.86523 112.32031 C 184.13339 111.88642 184.06101 111.76993 182.02539 109.36719 C 180.85695 107.98801 180.62456 107.89579 178.41406 107.94727 z "
       transform="scale(0.26458333)"
       id="rect3687"
       inkscape:export-xdpi="17.837784"
       inkscape:export-ydpi="17.837784" />
    <path
       style="fill:#dc322f;stroke-width:0.11833905;fill-opacity:1"
       d="M 498.63672 16.351562 C 495.44079 16.351562 488.40518 21.471672 479.02148 29.863281 C 470.10607 38.656955 460.22988 51.058895 453.57031 65.587891 C 450.9195 71.391771 448.87879 77.451088 447.7207 83.675781 C 440.68167 75.542276 432.78914 68.869641 425.79297 63.984375 C 416.19679 57.925981 409.32104 54.502956 406.89258 55.210938 C 404.46567 55.918616 406.36824 60.786889 410.93164 68.089844 C 414.72107 75.369214 419.55132 84.711173 422.12695 95.357422 C 423.42348 100.62593 424.14326 106.01641 423.89453 111.38867 C 423.62921 116.9225 422.43113 122.23639 420.08594 127.1875 C 417.48415 132.68728 413.7145 137.53461 409.1875 141.63086 C 402.99644 147.30295 395.4272 151.56605 389.58008 154.38867 C 378.97125 159.87855 374.31641 163.96875 374.31641 163.96875 C 374.31641 163.96875 368.22995 168.93321 363.57422 178.01953 C 360.11058 185.03188 358.18299 193.45826 360.05469 202.94336 C 361.56147 210.70118 365.02332 218.38514 370.3125 226.01562 C 375.31675 233.2767 381.51904 240.12777 388.50391 246.58789 C 402.40353 259.44773 418.21659 270.00313 431.57812 277.38867 C 434.6869 279.10896 437.6223 280.63202 440.33789 281.94922 C 453.90987 289.17065 482.29887 293.18945 496.78516 293.18945 C 530.7184 287.31138 555.93399 271.59404 582.58594 252.80469 C 590.56221 247.10833 597.82593 240.81604 603.96094 233.81836 C 610.43844 226.47145 615.10624 218.68294 617.84375 210.4043 C 621.22004 200.28862 620.6493 190.5522 618.32617 182.06055 C 615.14952 171.02236 609.89258 164.25195 609.89258 164.25195 C 609.89258 164.25195 605.91969 158.74575 596.25 150.44727 C 590.88802 146.09854 584.04363 139.79591 578.79492 132.21875 C 574.94891 126.73522 571.97555 120.57562 570.26758 113.93945 C 568.72712 107.96481 568.38553 101.83011 569.00586 95.644531 C 569.61712 89.641697 571.19336 83.820949 573.32422 78.255859 C 577.58579 67.000918 583.88015 57.66037 588.81055 50.388672 C 594.51408 43.252735 597.18438 38.259797 594.88477 36.96875 C 592.58352 35.676832 585.19955 38.030892 574.69141 42.736328 C 564.75144 47.811175 552.87094 55.844507 542.8457 66.847656 C 537.90488 72.284544 533.57456 78.373027 530.32031 85.136719 C 526.95396 92.116599 524.94899 99.622512 524.61719 107.5918 C 524.48188 110.92976 524.66921 114.27136 525.15234 117.59961 C 523.0637 116.59452 520.99612 115.49998 518.99414 114.30859 C 512.59317 110.54872 506.8843 105.79597 502.37695 100.08594 C 498.31574 94.946309 495.50782 89.179613 493.73828 82.986328 C 492.03118 76.972382 491.45896 70.753517 491.5957 64.5625 C 491.81983 52.060239 495.03818 40.600552 497.57617 31.666016 C 501.01777 22.557657 501.97313 16.703603 498.93359 16.367188 C 498.83797 16.352069 498.74028 16.351562 498.63672 16.351562 z M 439.83398 103.52148 C 440.05732 103.52148 440.74094 104.51642 441.35156 105.73242 C 443.01603 109.04707 445.75716 112.71599 448.52344 115.33398 C 454.76461 121.24066 462.08505 124.48812 472.68164 126.05078 C 480.52397 127.20728 489.43631 129.6153 496.99805 132.61914 C 498.73769 133.3102 500.26439 133.77249 500.39062 133.64648 C 501.05801 132.97906 492.59304 125.67051 488.63867 123.5 C 486.92662 122.56029 483.67823 120.95431 481.41992 119.92969 C 479.16162 118.90506 477.31445 117.90291 477.31445 117.70312 C 477.31445 117.17159 481.20821 117.78644 485.31641 118.9668 C 495.66827 121.94112 506.20861 127.53966 514.20703 134.31055 C 518.998 138.36626 523.03821 140.65171 529.32031 142.86328 C 530.13106 143.14875 530.12577 143.18611 529.15039 143.92188 C 528.2455 144.60455 528.16656 144.90445 528.39258 146.81445 C 528.67975 149.23909 529.82826 151.72735 531.29102 153.0918 C 531.83984 153.60376 535.41199 155.36353 539.22852 157.00195 C 547.72266 160.64846 554.44615 164.43142 557.76367 167.43359 C 559.13821 168.67748 560.45519 169.57558 560.69141 169.42969 C 561.23827 169.09171 560.83142 167.30807 559.78906 165.47852 C 558.80669 163.7543 559.00657 163.46226 560.69141 164.16016 C 562.63491 164.96518 565.95719 168.8755 567.70703 172.41602 C 568.56616 174.15434 569.39664 175.65558 569.55273 175.75195 C 569.70883 175.8484 570.46972 175.46003 571.24414 174.88867 C 572.69227 173.82028 574.17383 173.51523 574.17383 174.28516 C 574.17383 174.52447 573.72057 175.61258 573.16797 176.70508 C 572.03403 178.94692 570.03586 184.81136 568.90234 189.2207 C 568.10804 192.31035 567.48513 193.43769 567.12305 192.44336 C 566.65616 191.16162 564.16115 188.81763 562.46289 188.06641 C 560.26653 187.09484 559.43359 187.54204 559.43359 189.69336 C 559.43359 191.82603 558.4628 191.49268 556.20703 188.58789 C 555.12782 187.19817 554.10607 186.0625 553.9375 186.0625 C 553.76882 186.0625 553.49846 186.77187 553.33594 187.63867 C 553.17346 188.50548 552.95065 189.35719 552.8418 189.5332 C 552.48493 190.11061 551.01981 189.0061 549.90039 187.31445 C 548.7784 185.61907 548.0625 185.46947 548.0625 186.92969 C 548.0625 188.60555 546.1376 187.59306 544.46289 185.03711 C 543.61461 183.74255 543.00977 183.6435 543.00977 184.79883 C 543.00977 186.08751 542.20068 185.81298 540.39062 183.91016 C 538.86952 182.31113 538.7264 182.24739 538.51172 183.06836 C 538.15939 184.41569 537.49546 184.15473 535.5625 181.91016 C 533.64828 179.68733 530.20419 177.22715 527.81836 176.37695 C 526.44669 175.88815 526.08493 175.94361 523.6875 177.01953 C 519.00523 179.12081 516.57641 183.41528 517.70312 187.59961 L 518.17188 189.3418 L 523.32617 189.11914 C 527.69515 188.93051 529.02242 189.03303 532.03516 189.79492 C 536.54712 190.93595 536.53862 190.93773 536.83984 189.43164 C 536.97882 188.7368 537.34261 188.16797 537.64648 188.16797 C 537.95051 188.16797 539.13274 189.11534 540.27344 190.27344 C 541.4141 191.43154 542.54932 192.37891 542.79688 192.37891 C 543.04432 192.37891 543.46036 191.8101 543.72266 191.11523 C 543.98492 190.42041 544.38897 189.85156 544.61914 189.85156 C 544.84939 189.85156 545.88847 190.79893 546.92969 191.95703 C 547.97091 193.11513 548.94194 194.0625 549.08594 194.0625 C 549.23005 194.0625 549.53337 193.57638 549.75977 192.98047 C 550.3527 191.42102 551.29634 191.80423 553.4707 194.48633 C 554.50293 195.75967 555.48655 196.85583 555.65625 196.92383 C 555.82584 196.9918 556.08464 196.56569 556.23242 195.97656 C 556.38028 195.38742 556.66813 194.90625 556.87109 194.90625 C 557.4655 194.90625 559.96637 199.06735 560.77148 201.39648 C 561.53491 203.60417 561.7307 205.70689 561.2832 206.87305 C 560.91871 207.82278 560.27539 207.69686 560.27539 206.67578 C 560.27539 205.63637 559.13747 203.32812 558.625 203.32812 C 558.42382 203.32812 557.63486 203.91153 556.87109 204.625 C 556.10736 205.33846 554.52314 206.40338 553.35156 206.99023 C 550.44991 208.44367 549.85752 209.03612 548.38086 211.95898 C 547.16238 214.37078 547.08813 214.43519 546.71094 213.43164 C 546.23407 212.16253 546.5874 209.59462 547.47461 207.87891 C 548.28827 206.30544 547.9808 205.43359 546.61133 205.43359 C 546.02947 205.43359 540.57467 204.30256 534.49023 202.91992 C 515.41726 198.58582 506.98973 197.64071 501.67969 199.24023 C 499.35966 199.93907 497.29863 201.44069 496.37695 203.10352 C 495.95361 203.86716 495.82526 203.88404 494.72266 203.31445 C 492.58616 202.21076 487.693 196.92788 486.47656 194.41211 C 483.36575 187.97867 483.23268 182.13001 485.98047 172.69141 C 486.16223 172.06745 486.07667 171.74414 485.73047 171.74414 C 484.77531 171.74414 482.24584 174.85803 480.94727 177.63281 C 478.6001 182.64799 479.02828 190.63247 481.95703 196.4668 C 484.25419 201.04299 489.16271 205.56923 493.79883 207.38672 C 494.94607 207.83647 496.4683 209.01729 497.86328 210.54102 C 500.21736 213.11235 503.54 215.33359 518.27539 224.18164 C 522.85387 226.93083 527.83102 230.20169 529.33398 231.44922 C 534.75122 235.94573 539.38025 243.37242 541.33789 250.70508 C 542.3999 254.68323 542.9576 264.7233 542.2207 266.60352 L 541.76367 267.76562 L 537.22852 263.17383 C 528.971 254.81756 524.5338 252.65352 502.1582 246.07031 C 489.61656 242.38039 487.09302 241.51804 482.44141 239.32031 C 472.54517 234.64469 465.77282 228.33955 461.25391 219.60156 C 459.70351 216.60393 459.19527 215.92362 458.96094 216.53125 C 458.37538 218.05012 460.83592 229.89847 462.80078 235.01758 C 463.33226 236.40227 461.91514 235.79814 459.83398 233.75391 C 453.31713 227.3526 449.56668 215.81598 448.81641 199.85352 C 448.66674 196.66874 448.41617 194.0625 448.25781 194.0625 C 447.76111 194.0625 447.0647 195.98322 446.32422 199.40039 C 445.79108 201.86026 445.61587 204.65786 445.63477 210.42773 C 445.66281 219.12707 445.54611 219.25742 443.32031 213.01367 C 440.60079 205.38465 440.06288 202.17973 440.07422 193.64258 C 440.08257 186.37496 440.15912 185.60221 441.22461 182.14648 C 443.78036 173.85773 448.68029 166.66861 455.20508 161.63477 C 456.47821 160.65252 457.51953 159.67482 457.51953 159.46094 C 457.51953 158.94446 454.87933 159.44504 452.29492 160.45117 C 449.07257 161.70569 445.01409 164.2414 440.95703 167.53516 C 438.91193 169.19548 437.1515 170.46592 437.04492 170.35938 C 436.69649 170.01096 438.95655 164.54088 440.49414 162.00977 C 443.75474 156.64224 448.44754 152.674 453.68555 150.85938 C 455.21471 150.32962 458.55183 149.68262 461.09961 149.42188 C 465.96239 148.92419 473.21662 147.87517 474.4707 147.48828 C 475.40255 147.20124 475.41879 146.64644 474.50781 146.29688 C 474.12249 146.14898 469.81175 145.856 464.92773 145.64453 C 449.91813 144.99505 443.49981 143.00999 437.67578 137.21484 C 435.49257 135.04248 433.19005 131.50331 433.65625 131.03711 C 433.7648 130.92855 434.87922 131.41752 436.13281 132.125 C 442.12125 135.50466 448.21111 136.56358 461.05273 136.45703 C 467.20361 136.40605 472.84144 136.60401 476.63477 137.00391 C 483.67625 137.74611 483.75315 137.74933 483.42773 137.22266 C 482.96966 136.48151 478.90891 135.52799 472.63867 134.69141 C 463.20656 133.43295 460.45706 132.65786 454.47656 129.56641 C 451.74234 128.15302 450.07827 126.85784 446.73438 123.53906 C 441.22885 118.07487 439.44134 114.73781 439.10156 109.29102 C 438.87048 105.58739 439.13216 103.52148 439.83398 103.52148 z M 512.91992 154.74219 C 510.31398 154.80303 506.58203 156.39679 506.58203 157.44922 C 506.58203 157.80069 507.46766 158.35912 508.6875 158.77539 C 511.01641 159.57011 517.93981 159.81313 518.37109 159.11523 C 518.63925 158.68134 518.56687 158.56485 516.53125 156.16211 C 515.36281 154.78293 515.13042 154.69071 512.91992 154.74219 z "
       transform="scale(0.26458333)"
       id="rect3717-6-7-3"
       inkscape:export-xdpi="5.5483732"
       inkscape:export-ydpi="5.5483732" />
    <path
       style="fill:#000080;stroke-width:0.13164505"
       d="m 231.97958,73.106588 c -0.23036,-0.58776 -0.0561,-3.72668 0.27586,-4.97026 0.61196,-2.2922 2.05933,-4.61379 3.75277,-6.01941 0.46983,-0.38998 2.02525,-1.4122 3.45649,-2.2716 4.6063,-2.76592 5.64524,-3.46016 6.38114,-4.26396 0.43607,-0.47632 0.91166,-0.8455 1.27029,-0.98609 1.44926,-0.56815 2.98379,-1.98323 3.70189,-3.41376 0.91553,-1.82382 1.04935,-4.32012 0.31562,-5.88787 -0.40594,-0.8674 -1.19652,-1.84076 -1.4951,-1.84076 -0.10823,0 -0.13492,0.10115 -0.0781,0.2962 0.85897,2.95052 0.81715,4.77903 -0.15529,6.79013 -0.38027,0.78644 -1.90989,2.43764 -2.57776,2.78265 -0.34467,0.17806 -0.38491,0.17294 -0.51724,-0.0658 -0.28812,-0.5198 -0.93243,-0.9892 -1.65768,-1.20766 -1.65993,-0.50001 -4.2941,-0.20459 -10.25634,1.15026 -1.90201,0.43222 -3.60703,0.78584 -3.78892,0.78584 -0.4281,0 -0.52429,0.27231 -0.26994,0.76417 0.27735,0.53634 0.38779,1.33958 0.23872,1.73631 -0.11787,0.31371 -0.14113,0.29318 -0.52203,-0.46075 -0.4616,-0.91369 -0.64704,-1.09904 -1.5541,-1.55339 -0.36624,-0.18345 -0.86124,-0.51602 -1.09999,-0.73905 -0.23875,-0.22303 -0.48555,-0.40551 -0.54844,-0.40551 -0.1602,0 -0.51604,0.7217 -0.51604,1.04663 0,0.31919 -0.20109,0.3585 -0.31503,0.0616 -0.13989,-0.36455 -0.0784,-1.02195 0.16019,-1.71207 0.25169,-0.72809 1.03341,-2.02905 1.21922,-2.02905 0.0635,0 0.15323,0.15068 0.19945,0.33484 0.0462,0.18417 0.12742,0.31746 0.18043,0.29621 0.053,-0.0213 0.3604,-0.36432 0.68308,-0.76237 0.67971,-0.83843 0.9748,-0.95815 1.16015,-0.47067 0.0708,0.18629 0.16561,0.3387 0.21065,0.3387 0.045,0 0.34819,-0.29621 0.67368,-0.65823 0.32549,-0.36202 0.6507,-0.65822 0.72268,-0.65822 0.072,0 0.19797,0.17772 0.27995,0.39493 0.082,0.21721 0.21237,0.39493 0.28972,0.39493 0.0774,0 0.43239,-0.29619 0.78897,-0.65822 0.35658,-0.36202 0.72609,-0.65822 0.82113,-0.65822 0.095,0 0.20834,0.17772 0.25178,0.39493 0.0942,0.47081 0.0916,0.47062 1.50202,0.11393 0.94178,-0.23817 1.35672,-0.2704 2.72247,-0.21143 l 1.61134,0.0696 0.1467,-0.54482 c 0.35222,-1.30802 -0.40697,-2.65014 -1.87065,-3.307 -0.74945,-0.33634 -0.86308,-0.35404 -1.29187,-0.20124 -0.74581,0.26578 -1.82221,1.03502 -2.4206,1.72988 -0.60425,0.70166 -0.81171,0.7831 -0.92185,0.36192 -0.0671,-0.25663 -0.11187,-0.23657 -0.58738,0.26329 -0.56583,0.59482 -0.81878,0.68064 -0.81878,0.2778 0,-0.36116 -0.18925,-0.33008 -0.45442,0.0746 -0.52352,0.79899 -1.12532,1.11525 -1.12532,0.59137 0,-0.45646 -0.22376,-0.40957 -0.57449,0.12041 -0.34994,0.52881 -0.80793,0.87446 -0.91949,0.69396 -0.034,-0.055 -0.10345,-0.3218 -0.15429,-0.59276 -0.0508,-0.27096 -0.13556,-0.49266 -0.18829,-0.49266 -0.0527,0 -0.3719,0.35544 -0.70926,0.78987 -0.70516,0.90804 -1.0086,1.0119 -1.0086,0.34523 0,-0.67251 -0.26002,-0.81217 -0.9466,-0.50846 -0.53089,0.23484 -1.3112,0.96751 -1.45715,1.36818 -0.11323,0.31083 -0.30778,-0.0417 -0.55607,-1.00748 -0.35435,-1.37837 -0.97921,-3.21127 -1.33368,-3.91207 -0.17274,-0.34152 -0.31407,-0.68215 -0.31407,-0.75696 0,-0.24068 0.46289,-0.14527 0.91558,0.18872 0.24209,0.17861 0.48008,0.30006 0.52886,0.26991 0.0488,-0.0301 0.30844,-0.49941 0.577,-1.04282 0.547,-1.10677 1.58565,-2.32884 2.19319,-2.5805 0.52669,-0.21816 0.58916,-0.1269 0.28207,0.41209 -0.32584,0.57192 -0.45335,1.12968 -0.2824,1.23533 0.0739,0.0456 0.48585,-0.23516 0.91554,-0.624 1.03706,-0.93848 3.13848,-2.12136 5.79376,-3.26126 1.19306,-0.51218 2.30958,-1.06218 2.48115,-1.22222 0.45725,-0.42653 0.81658,-1.20461 0.90635,-1.96255 0.0707,-0.59707 0.0461,-0.69094 -0.23679,-0.90434 -0.30491,-0.23001 -0.30673,-0.24129 -0.0533,-0.33053 1.9638,-0.69134 3.22658,-1.40606 4.72425,-2.67388 2.50032,-2.11659 5.79579,-3.8667 9.0318,-4.79648 1.28423,-0.36898 2.50126,-0.5612 2.50126,-0.39505 0,0.0625 -0.57759,0.37566 -1.28354,0.69596 -0.70595,0.3203 -1.72143,0.82272 -2.25663,1.11647 -1.23614,0.67851 -3.88226,2.96313 -3.67363,3.17177 0.0394,0.0394 0.51657,-0.10515 1.06039,-0.32118 2.36381,-0.93901 5.14998,-1.6915 7.60151,-2.05302 3.3125,-0.48849 5.6011,-1.50373 7.55211,-3.35016 0.86474,-0.81839 1.72161,-1.9657 2.24193,-3.00187 0.19088,-0.38012 0.40417,-0.69113 0.47398,-0.69113 0.21939,0 0.30147,0.64574 0.22924,1.8035 -0.10623,1.70268 -0.66531,2.74626 -2.38635,4.45438 -1.0453,1.03746 -1.56497,1.44205 -2.41969,1.88387 -1.86952,0.9664 -2.72931,1.20906 -5.6778,1.60245 -1.96009,0.26152 -3.2293,0.55914 -3.3725,0.79082 -0.10175,0.16464 -0.0777,0.16387 2.12344,-0.0682 1.1858,-0.12501 2.94809,-0.18684 4.87087,-0.17091 4.01431,0.0333 5.91823,-0.29768 7.79022,-1.35417 0.39188,-0.22116 0.74027,-0.37435 0.7742,-0.34041 0.14574,0.14573 -0.57417,1.25207 -1.25664,1.93116 -1.8206,1.81157 -3.82691,2.43221 -8.51894,2.63524 -1.52675,0.0661 -2.87447,0.15793 -2.99492,0.20416 -0.28477,0.10928 -0.27948,0.28277 0.0113,0.3725 0.39203,0.12094 2.65962,0.44886 4.17974,0.60444 0.79644,0.0815 1.8392,0.28369 2.31721,0.44929 1.63741,0.56726 3.1049,1.80744 4.12417,3.48533 0.48065,0.79123 1.18695,2.50158 1.07802,2.61049 -0.0333,0.0333 -0.58359,-0.36411 -1.22289,-0.88313 -1.26825,-1.02963 -2.5371,-1.82242 -3.54441,-2.21459 -0.80789,-0.31452 -1.63313,-0.47088 -1.63313,-0.30943 0,0.0669 0.32564,0.37282 0.72363,0.67987 2.03966,1.57359 3.57133,3.82081 4.37026,6.41189 0.33307,1.08027 0.35724,1.32159 0.35986,3.59346 0.003,2.66873 -0.16487,3.67084 -1.015,6.05568 -0.69578,1.95181 -0.73247,1.91081 -0.7237,-0.80861 0.006,-1.80368 -0.0488,-2.67804 -0.21546,-3.447 -0.23148,-1.06821 -0.44878,-1.66842 -0.60405,-1.66842 -0.0495,0 -0.12832,0.81455 -0.17511,1.81012 -0.23453,4.98989 -1.40647,8.59637 -3.44365,10.59743 -0.65057,0.63903 -1.09404,0.82778 -0.9279,0.39492 0.61422,-1.60024 1.3838,-5.30395 1.20075,-5.77875 -0.0732,-0.18994 -0.23201,0.0228 -0.71666,0.95985 -1.41262,2.73151 -3.53015,4.70192 -6.62373,6.16352 -1.4541,0.68702 -2.24307,0.95719 -6.16361,2.11067 -6.99465,2.05792 -8.38115,2.73409 -10.96246,5.34628 l -1.4182,1.43515 z m 10.4823,-33.70756 c 0.38133,-0.13012 0.65823,-0.3044 0.65823,-0.41427 0,-0.32899 -1.16629,-0.82724 -1.98092,-0.84625 -0.691,-0.0161 -0.76364,0.0124 -1.12889,0.4435 -0.63634,0.7511 -0.65905,0.78755 -0.57523,0.92318 0.13483,0.21817 2.29879,0.14228 3.02681,-0.10616 z"
       id="path4361"
       inkscape:connector-curvature="0"
       sodipodi:nodetypes="ccssccccsccccccsccccsssccsscccscscscsccscssccccscscccsssccscsccscccccccccssscccssccscccsccccscscccscsccsscccccscscccccccccscccc" />
    <g
       id="g5204"
       transform="matrix(0.68675171,0,0,0.68675171,476.81777,423.36138)"
       style="fill:#dc322f;fill-opacity:1"
       inkscape:export-xdpi="15.074941"
       inkscape:export-ydpi="15.074941">
      <path
         style="fill:#dc322f;stroke-width:0.35277778;fill-opacity:1"
         d="m -519.64238,-362.85502 c -0.57988,-0.32103 -1.49299,-0.419 -2.72244,-0.29211 -1.37654,0.14207 -2.07817,0.0414 -2.74189,-0.39351 -0.52131,-0.34158 -1.22817,-0.50006 -1.70104,-0.38138 -2.28601,0.57375 -3.78015,-1.43002 -3.78015,-5.06952 0,-2.02399 -0.0373,-2.10581 -1.35956,-2.98083 -2.2191,-1.46853 -5.50118,-4.68171 -7.65678,-7.49603 -1.10967,-1.44877 -2.06902,-2.63413 -2.13191,-2.63413 -0.0629,0 -0.73759,0.91777 -1.49933,2.03949 -3.79773,5.5924 -10.40278,9.60218 -15.81702,9.60218 -1.86355,0 -2.2833,-0.57007 -3.0897,-4.1962 -2.87208,-12.91472 -1.89533,-25.29367 2.77496,-35.1689 2.35937,-4.98883 4.84695,-8.4079 9.36295,-12.86892 l 4.13011,-4.07985 -0.86106,-1.21181 c -1.40579,-1.97845 -4.57942,-8.80768 -5.16818,-11.12126 -1.57404,-6.18523 -1.49649,-13.93336 0.23272,-23.25167 0.64577,-3.47995 0.77738,-5.3769 0.73949,-10.65913 -0.0433,-6.04162 -0.006,-6.43863 0.62915,-6.64013 0.8403,-0.2667 2.63207,0.30589 5.60305,1.79053 1.26118,0.63023 3.80118,1.75484 5.64444,2.49912 3.11731,1.25873 3.58547,1.35033 6.70278,1.31155 2.68048,-0.0333 4.44602,-0.32603 8.81945,-1.46207 12.31412,-3.19874 18.6362,-3.29178 29.45694,-0.43354 5.65949,1.49493 7.18252,1.59983 11.1125,0.76543 4.31034,-0.91516 6.89673,-1.82758 10.14086,-3.57744 1.43732,-0.77528 2.9734,-1.40961 3.4135,-1.40961 1.1688,0 1.91978,1.03529 2.32291,3.20233 0.98694,5.30538 2.1144,13.00337 2.1144,14.43658 0,0.88924 0.25441,3.5152 0.56536,5.83548 0.74451,5.55542 0.50239,13.26028 -0.54274,17.27146 -0.75828,2.91026 -2.78846,7.49824 -4.67872,10.5734 l -1.07814,1.75396 1.5442,1.24465 c 8.50218,6.8529 13.91775,15.50318 16.23936,25.9391 0.9172,4.1229 1.25665,13.2927 0.66876,18.06513 -0.48728,3.95557 -1.68829,9.843 -2.20659,10.81685 -0.31017,0.58278 -0.68799,0.64207 -3.23813,0.50823 -2.48847,-0.13062 -3.30104,-0.35195 -5.88656,-1.60341 -3.55469,-1.72057 -6.68796,-4.58846 -9.2847,-8.49833 -0.9438,-1.42106 -1.82725,-2.45293 -1.96323,-2.29305 -0.13597,0.15988 -1.0245,1.40062 -1.97449,2.7572 -2.02128,2.88635 -5.3913,6.26947 -8.1112,8.14275 -1.80018,1.23982 -1.92553,1.41977 -1.92737,2.76674 -0.005,3.45536 -1.17051,5.14483 -3.55011,5.14483 -0.70313,0 -1.79983,0.26012 -2.43712,0.57804 -0.92038,0.45915 -1.46629,0.50765 -2.65421,0.23581 -1.13013,-0.25861 -1.65247,-0.22745 -2.13793,0.12752 -1.0979,0.8028 -2.49119,0.5727 -3.3924,-0.56027 l -0.81932,-1.03 -3.52778,0.23625 c -1.94028,0.12995 -5.00123,0.11121 -6.80211,-0.0416 l -3.27433,-0.27789 -1.17705,1.24803 c -1.28532,1.36284 -1.71128,1.46705 -3.0246,0.73998 z m -1.78704,-14.02236 c 0.96026,-1.03071 0.96746,-3.2131 0.0138,-4.16681 -2.2171,-2.2171 -4.92196,1.82187 -2.76073,4.1224 0.96096,1.02289 1.82242,1.03682 2.74698,0.0444 z m 13.83249,0.18823 c 1.0196,-0.92272 0.87984,-3.41366 -0.241,-4.29531 -1.06467,-0.83748 -2.11949,-0.64618 -2.88579,0.52335 -0.60162,0.91818 -0.45705,2.98174 0.27028,3.85812 0.55928,0.6739 2.06691,0.62842 2.85651,-0.0862 z m 13.86525,-0.45697 c 0.67098,-1.29752 0.67542,-1.90392 0.0232,-3.1652 -0.91125,-1.76216 -2.91359,-1.61726 -3.69422,0.26733 -1.17829,2.84465 2.28486,5.57842 3.67103,2.89787 z m 21.6945,-12.98663 c -1.3397,-4.16596 -1.86679,-9.18726 -1.41788,-13.50729 0.31387,-3.02042 1.09423,-7.42423 1.6534,-9.33054 0.14277,-0.48676 0.0918,-0.59616 -0.16451,-0.35278 -0.7506,0.71286 -2.5177,6.83083 -2.86918,9.93358 -0.50618,4.46831 0.14513,9.38942 1.68241,12.71194 0.87141,1.88336 1.82586,3.63643 1.97985,3.63643 0.0715,0 -0.31733,-1.39111 -0.86409,-3.09134 z m -71.96963,1.44725 c 3.34118,-5.66288 3.68535,-14.99374 0.82267,-22.30305 -1.0165,-2.59541 -1.69899,-3.65769 -1.14481,-1.78185 0.81239,2.74983 1.74661,9.4336 1.74661,12.4959 0,3.62261 -0.74518,8.16833 -1.78942,10.91571 -0.74091,1.94933 -0.74509,1.9646 -0.53848,1.9646 0.0778,0 0.48439,-0.58109 0.90343,-1.29131 z m 28.48286,-3.11951 c 0.95566,-0.66937 1.65636,-2.74212 1.34761,-3.98639 -0.56776,-2.28804 -2.96185,-3.28862 -4.40814,-1.84232 -1.46131,1.46131 -1.3423,4.40285 0.22811,5.63813 1.09067,0.85792 1.81051,0.90636 2.83242,0.19058 z m -15.03725,-0.73288 c 0.67001,-0.71319 0.85524,-1.29286 0.85524,-2.67638 0,-1.49758 -0.15044,-1.89542 -0.9898,-2.61741 -0.5444,-0.46827 -1.28961,-0.8514 -1.65603,-0.8514 -0.36641,0 -1.11163,0.38313 -1.65602,0.8514 -2.06424,1.77558 -0.88215,6.20416 1.65602,6.20416 0.54936,0 1.28828,-0.37569 1.79059,-0.91037 z m 30.82555,0.69123 c 0.82493,-0.31656 1.60331,-2.01314 1.60331,-3.49465 0,-1.43169 -1.55275,-3.34177 -2.71659,-3.34177 -1.05712,0 -2.13785,0.96823 -2.58163,2.31288 -0.94811,2.8728 1.18649,5.48611 3.69491,4.52354 z m 15.62221,-0.32043 c 1.78356,-1.24925 1.60612,-5.05735 -0.28502,-6.11673 -2.62094,-1.46822 -4.92745,2.15014 -3.33436,5.23083 0.77796,1.50441 2.2292,1.85962 3.61938,0.8859 z m -38.16815,-16.9069 c 2.23098,-2.23097 -0.40464,-6.29212 -2.72228,-4.19469 -0.91443,0.82754 -0.87852,3.41611 0.0604,4.35504 0.93105,0.93106 1.61145,0.89007 2.66187,-0.16035 z m 14.78063,0.0819 c 0.8005,-1.14287 0.69664,-3.07044 -0.21788,-4.04391 -0.97604,-1.03895 -1.52238,-1.02856 -2.60037,0.0494 -1.64485,1.64484 -0.82462,4.77853 1.25075,4.77853 0.6524,0 1.21567,-0.28175 1.5675,-0.78405 z m 13.92912,-0.14547 c 0.81707,-1.03873 0.93351,-2.26021 0.32557,-3.4152 -1.27342,-2.4193 -3.82774,-1.35093 -3.82774,1.60099 0,2.47853 2.11699,3.57518 3.50217,1.81421 z m -12.59334,-19.55736 c 1.4998,-1.82909 2.73011,-3.58171 2.73403,-3.89471 0.009,-0.6909 -2.96837,-3.53693 -4.56151,-4.36077 -0.65889,-0.34072 -1.50541,-0.50686 -1.97811,-0.38822 -1.12044,0.28121 -5.09491,4.00721 -5.09491,4.7764 0,0.79079 5.29918,7.47595 5.79804,7.31448 0.20656,-0.0669 1.60268,-1.6181 3.10246,-3.44718 z m 17.43168,-11.63709 c 7.13519,-3.43761 8.88856,-12.64023 3.53695,-18.56382 -2.54594,-2.81805 -6.68063,-4.20301 -10.67688,-3.57633 -3.77563,0.59207 -7.15954,3.10821 -8.86107,6.58872 -0.82943,1.69664 -0.97336,2.4336 -0.97443,4.98929 -10e-4,3.56567 0.70593,5.4182 3.03307,7.94285 3.64872,3.9584 9.05483,4.97402 13.94236,2.61929 z m -2.3327,-2.54679 c -3.14342,-1.59058 -3.35975,-7.07117 -0.34932,-8.84948 2.17094,-1.2824 4.83156,-0.31961 5.84954,2.11675 1.72702,4.13336 -1.88921,8.55993 -5.50022,6.73273 z m 1.40052,-5.26368 c 0,-0.56989 -0.10432,-0.6718 -0.39259,-0.38352 -0.21593,0.21593 -0.28594,0.56518 -0.15557,0.77611 0.36491,0.59044 0.54816,0.45919 0.54816,-0.39259 z m -30.93932,8.1808 c 4.19117,-1.29452 7.56464,-5.36246 8.1845,-9.86937 0.46312,-3.36724 -1.53861,-8.33504 -4.16389,-10.33374 -2.75902,-2.10053 -4.09613,-2.54541 -7.65351,-2.54644 -3.00916,-7.1e-4 -3.5601,0.10478 -5.39531,1.03466 -2.39916,1.21564 -4.56411,3.43277 -5.63034,5.76603 -1.13843,2.49127 -1.1104,7.40601 0.0548,9.6025 1.32296,2.49393 2.41817,3.75179 4.34097,4.98565 3.28396,2.10731 6.47555,2.53047 10.26281,1.36071 z m -1.2194,-3.00346 c -2.12799,-1.15582 -3.07124,-4.57546 -1.89138,-6.85705 1.407,-2.72084 4.24312,-3.2983 6.41658,-1.30647 1.11352,1.02046 1.30525,1.43413 1.44483,3.11729 0.19384,2.33751 -0.48133,3.88196 -2.13885,4.89261 -1.32858,0.81009 -2.53358,0.8584 -3.83118,0.15362 z m 1.68019,-5.36402 c -0.3586,-0.35861 -0.65449,0.18129 -0.36026,0.65736 0.22226,0.35962 0.30536,0.3599 0.42485,0.001 0.0817,-0.24511 0.0526,-0.54156 -0.0646,-0.65879 z"
         id="path5218"
         inkscape:connector-curvature="0"
         sodipodi:nodetypes="csccscsscscscccccccsccccssscscsccsccccccccccscccccccccccccccccccccccccccccccccscsccscssccccccscscsccssccccccccscccccscccsscccccsccsscccssccccsccsccccccccccccccccccccc" />
    </g>
    <path
       style="fill:#859900;fill-opacity:1;stroke-width:0.24227074"
       d="m 30.981382,174.41622 c -0.416727,-0.29121 -0.712505,-0.31587 -1.425889,-0.1189 -0.715065,0.19745 -1.080101,0.16633 -1.775782,-0.15137 -0.481626,-0.21996 -1.298172,-0.40605 -1.814542,-0.41352 -1.290441,-0.0187 -1.872387,-0.81449 -1.954708,-2.67301 l -0.06167,-1.39232 -1.671904,-0.88538 C 13.271052,164.0126 8.4899564,156.26063 7.7647124,145.25202 c -0.392465,-5.95742 1.146408,-11.22787 6.1831266,-21.17639 1.90873,-3.77012 2.65968,-5.49788 2.65968,-6.1193 0,-2.36077 3.294561,-20.463887 4.082072,-22.430377 0.378806,-0.94591 0.858536,-0.82912 1.76202,0.42896 1.995906,2.77925 7.449642,5.738457 13.029747,7.069977 2.27448,0.54273 3.24631,0.6262 8.525233,0.73221 6.500016,0.13055 9.262008,-0.13601 13.174028,-1.27144 4.912651,-1.42584 9.770807,-4.363877 11.307852,-6.838567 0.71548,-1.15195 1.300922,-1.03054 1.752352,0.3634 0.871639,2.69145 3.514541,17.095017 3.910528,21.311987 0.151079,1.60884 0.400459,2.21893 3.119438,7.63153 4.444499,8.84754 5.719763,13.04164 5.717936,18.80513 -0.0034,11.10343 -4.818731,19.63384 -13.946237,24.70653 l -1.605543,0.89229 -0.03688,1.73147 c -0.04533,2.12935 -0.508066,2.81244 -1.844306,2.72253 -0.471639,-0.0317 -1.206438,0.12512 -1.632877,0.34857 -0.912279,0.478 -1.517603,0.51018 -2.361786,0.12554 -0.505669,-0.23039 -0.695685,-0.20868 -1.060131,0.12114 -0.244215,0.22101 -0.672831,0.40184 -0.952476,0.40184 -0.584406,0 -1.512701,-1.06077 -1.512701,-1.72857 0,-0.24852 -0.095,-0.45186 -0.211109,-0.45186 -0.116102,0 -2.378309,0.28542 -5.027118,0.63427 -5.621057,0.74032 -9.943644,0.80868 -14.143432,0.22368 -5.331811,-0.74269 -5.060036,-0.73103 -5.239813,-0.22484 -0.246455,0.69391 -1.096324,1.5489 -1.525434,1.53462 -0.209961,-0.007 -0.618344,-0.17805 -0.907528,-0.38013 z m 15.255296,-4.53763 c 1.035479,-0.43265 2.262051,-1.85856 2.578279,-2.99728 0.301456,-1.08553 0.340643,-3.21671 0.05913,-3.21671 -0.108734,0 -0.456575,0.6246 -0.772982,1.38799 -0.316406,0.76339 -1.004483,1.85361 -1.529058,2.4227 -0.765564,0.83053 -1.117297,1.03472 -1.782438,1.03472 -1.064354,0 -1.685356,-0.66317 -2.900996,-3.09801 l -0.932911,-1.86854 -0.07332,1.13809 c -0.101908,1.58167 0.320953,2.95294 1.229801,3.98805 1.263415,1.43896 2.621391,1.83702 4.124471,1.20899 z m -10.053769,-6.55438 c 0.740105,-0.38508 1.550336,-1.21752 1.961466,-2.01523 0.444389,-0.86226 0.743375,-2.8501 0.541942,-3.60326 -0.177655,-0.66429 -0.219134,-0.61992 -0.995905,1.06531 -0.915339,1.98585 -2.310542,3.43994 -3.300626,3.43994 -0.84969,0 -1.790932,-1.0567 -2.784216,-3.12574 -0.853597,-1.77806 -1.188623,-1.96231 -1.188623,-0.65366 0,1.87114 1.002329,3.89363 2.379918,4.80217 0.782423,0.51601 2.480939,0.5614 3.386044,0.0905 z m 19.898102,-0.13938 c 1.60781,-0.46112 3.059013,-2.40201 3.173611,-4.24451 0.163213,-2.62417 -0.09335,-2.8372 -0.878569,-0.72949 -0.592295,1.58986 -2.426239,3.5156 -3.348017,3.5156 -0.904907,0 -1.874963,-1.07415 -2.918662,-3.23186 -0.939063,-1.94137 -1.26933,-1.79985 -0.991373,0.42483 0.223242,1.78673 1.286815,3.42085 2.620549,4.02627 1.200008,0.54473 1.256783,0.55053 2.342461,0.23916 z m -32.597268,-5.8858 c 4.173357,-6.7101 4.576932,-14.91085 1.121019,-22.77952 -0.888142,-2.0222 -2.39401,-4.64231 -2.56806,-4.46826 -0.04436,0.0444 0.308029,1.27502 0.783137,2.73475 2.989458,9.18474 2.940932,17.07049 -0.151161,24.56891 -0.402162,0.97525 -0.731205,1.81913 -0.731205,1.8753 0,0.34034 0.59803,-0.40655 1.54627,-1.93118 z m 44.224771,-1.43107 c -3.177765,-7.70615 -3.165204,-15.88299 0.0386,-25.12932 0.388948,-1.12253 0.660352,-2.08779 0.603119,-2.14502 -0.166353,-0.16636 -1.358416,1.83579 -2.34615,3.94052 -3.777718,8.04978 -3.280092,17.17865 1.304038,23.92244 0.430063,0.63267 0.85752,1.15052 0.949901,1.15078 0.09238,1.8e-4 -0.154896,-0.78247 -0.549497,-1.7394 z m -20.107396,-2.83192 c 1.202748,-0.9595 1.808064,-2.28895 1.917101,-4.21053 0.06215,-1.09484 0.0034,-1.63532 -0.176811,-1.63532 -0.14829,0 -0.270676,0.13628 -0.271981,0.30283 -0.0055,0.7052 -1.241126,2.87883 -2.157301,3.795 -1.752364,1.75236 -2.806939,1.25133 -4.54565,-2.15967 l -0.926208,-1.81703 -0.07333,1.13809 c -0.105149,1.63212 0.334963,2.98761 1.326351,4.08495 1.430132,1.58299 3.31133,1.77529 4.907824,0.50168 z m -10.53504,-6.17826 c 0.340951,-0.2234 0.919512,-0.85889 1.285696,-1.41222 0.5601,-0.84636 0.679047,-1.31652 0.749322,-2.96194 0.08745,-2.04769 -0.140449,-2.24804 -0.670072,-0.58907 -0.589617,1.84689 -2.003385,3.51863 -3.330512,3.93825 -0.79306,0.25076 -1.995212,-0.95199 -2.974212,-2.97568 -0.458633,-0.94803 -0.921841,-1.72371 -1.029344,-1.72371 -0.330761,0 -0.216388,2.06021 0.17613,3.17274 0.410864,1.16452 1.071821,1.98224 2.172244,2.68748 0.872141,0.55893 2.662922,0.49174 3.620748,-0.13585 z m 20.226097,-0.26457 c 1.640271,-0.84822 2.529711,-2.69486 2.39633,-4.97525 l -0.07793,-1.33249 -0.675886,1.44341 c -1.31419,2.80652 -2.877107,4.15609 -4.144416,3.57867 -0.565355,-0.2576 -2.317114,-2.95065 -2.675758,-4.11356 -0.333568,-1.08158 -0.680076,-0.57044 -0.577227,0.85144 0.206849,2.85964 1.883196,4.90248 4.022957,4.90248 0.575304,0 1.35468,-0.15961 1.731934,-0.3547 z m -9.353726,-13.44765 c 0.801578,-0.95262 1.220379,-2.90274 0.888266,-4.13612 -0.308633,-1.14618 -1.898986,-2.58031 -3.114192,-2.80828 -0.796542,-0.14944 -0.931655,-0.0793 -1.894432,0.98418 -0.570197,0.6298 -1.152508,1.5751 -1.294033,2.10068 -0.389437,1.44626 0.04498,2.12241 1.948322,3.03234 0.868163,0.41504 1.726431,0.9329 1.90726,1.15078 0.475912,0.57344 0.873452,0.49091 1.558809,-0.32358 z m 11.458928,-8.35574 c 1.632155,-0.73647 2.985419,-1.9874 3.862257,-3.5702 0.654453,-1.18136 0.711809,-1.48011 0.711809,-3.7076 0,-2.87173 -0.498978,-4.16593 -2.254844,-5.84834 -1.763264,-1.68951 -2.928158,-2.13325 -5.618948,-2.14044 -1.959838,-0.005 -2.480499,0.0819 -3.506609,0.58682 -5.993805,2.94948 -6.061916,11.52141 -0.115656,14.55497 2.117003,1.08001 4.701784,1.12661 6.921991,0.12479 z m -5.91535,-2.58457 c -0.572476,-0.28338 -1.308372,-0.86594 -1.635328,-1.29461 -1.095595,-1.43639 -0.723603,-1.76663 1.232066,-1.09378 1.768291,0.60838 3.527248,0.61123 5.462734,0.009 2.044535,-0.63634 2.389579,-0.38715 1.396021,1.00818 -1.20959,1.69871 -4.417454,2.38017 -6.455493,1.37136 z m -14.240758,2.2387 c 2.859826,-1.40789 4.379051,-3.89683 4.379051,-7.1742 0,-3.23027 -1.428622,-5.61695 -4.291389,-7.16925 -1.41479,-0.76716 -1.67728,-0.82535 -3.703164,-0.82088 -1.776138,0.004 -2.388694,0.10754 -3.303632,0.55883 -3.645395,1.79806 -5.551462,5.85535 -4.480876,9.53804 1.454298,5.00261 6.750027,7.35664 11.40001,5.06746 z m -5.674803,-1.86652 c -1.606971,-0.69497 -2.937985,-2.41678 -2.214094,-2.86417 0.114735,-0.0709 0.820655,0.0862 1.568707,0.34911 1.707038,0.59997 3.53085,0.59771 5.248534,-0.006 1.675564,-0.58941 1.938163,-0.59383 1.938163,-0.0327 0,1.28424 -2.604724,2.94111 -4.603145,2.92807 -0.599616,-0.004 -1.471791,-0.17214 -1.938165,-0.37383 z"
       id="path5218-6"
       inkscape:connector-curvature="0"
       sodipodi:nodetypes="ccccscscsscsscscccsccccccscssssscccccssccscccccccccsscscccsssccscscsccssccsscccccsscscccsccsccccscccsccccccsscccscsccscscccsscccssccssscccsccccscccccc"
       inkscape:export-xdpi="15.25075"
       inkscape:export-ydpi="15.25075" />
  </g>
</svg>
